HIERARCHY
ROOT hip
{
  OFFSET 0 0 0
  CHANNELS 6 Xposition Yposition Zposition Zrotation Yrotation Xrotation
  JOINT abdomen
  {
    OFFSET 0 20.6881 -0.73152
    CHANNELS 3 Zrotation Xrotation Yrotation
    JOINT chest
    {
      OFFSET 0 11.7043 -0.48768
      CHANNELS 3 Zrotation Xrotation Yrotation
      JOINT neck
      {
        OFFSET 0 22.1894 -2.19456
        CHANNELS 3 Zrotation Xrotation Yrotation
        JOINT head
        {
          OFFSET -0.24384 7.07133 1.2192
          CHANNELS 3 Zrotation Xrotation Yrotation
          JOINT leftEye
          {
            OFFSET 4.14528 8.04674 8.04672
            CHANNELS 3 Zrotation Xrotation Yrotation
            End Site
            {
              OFFSET 1 0 0
            }
          }
          JOINT rightEye
          {
            OFFSET -3.6576 8.04674 8.04672
            CHANNELS 3 Zrotation Xrotation Yrotation
            End Site
            {
              OFFSET 1 0 0
            }
          }
        }
      }
      JOINT rCollar
      {
        OFFSET -2.68224 19.2634 -4.8768
        CHANNELS 3 Zrotation Xrotation Yrotation
        JOINT rShldr
        {
          OFFSET -8.77824 -1.95073 1.46304
          CHANNELS 3 Zrotation Xrotation Yrotation
          JOINT rForeArm
          {
            OFFSET -28.1742 -1.7115 0.48768
            CHANNELS 3 Zrotation Xrotation Yrotation
            JOINT rHand
            {
              OFFSET -22.5879 0.773209 7.07136
              CHANNELS 3 Zrotation Xrotation Yrotation
              JOINT rThumb1
              {
                OFFSET -1.2192 -0.487915 3.41376
                CHANNELS 3 Zrotation Xrotation Yrotation
                JOINT rThumb2
                {
                  OFFSET -3.37035 -0.52449 3.41376
                  CHANNELS 3 Zrotation Xrotation Yrotation
                  End Site
                  {
                    OFFSET -1.78271 -1.18214 1.43049
                  }
                }
              }
              JOINT rIndex1
              {
                OFFSET -7.75947 0.938293 5.60832
                CHANNELS 3 Zrotation Xrotation Yrotation
                JOINT rIndex2
                {
                  OFFSET -2.54057 -0.884171 1.56538
                  CHANNELS 3 Zrotation Xrotation Yrotation
                  End Site
                  {
                    OFFSET -1.62519 -0.234802 1.16502
                  }
                }
              }
              JOINT rMid1
              {
                OFFSET -8.24714 1.18213 3.41376
                CHANNELS 3 Zrotation Xrotation Yrotation
                JOINT rMid2
                {
                  OFFSET -3.10165 -0.590103 1.0647
                  CHANNELS 3 Zrotation Xrotation Yrotation
                  End Site
                  {
                    OFFSET -2.48547 -0.328903 0.83742
                  }
                }
              }
              JOINT rRing1
              {
                OFFSET -8.82822 0.546677 1.51678
                CHANNELS 3 Zrotation Xrotation Yrotation
                JOINT rRing2
                {
                  OFFSET -2.60934 -0.819778 -0.0198488
                  CHANNELS 3 Zrotation Xrotation Yrotation
                  End Site
                  {
                    OFFSET -2.33842 -0.294052 0.168128
                  }
                }
              }
              JOINT rPinky1
              {
                OFFSET -8.27202 -0.0477905 -0.4584
                CHANNELS 3 Zrotation Xrotation Yrotation
                JOINT rPinky2
                {
                  OFFSET -1.82734 -0.647385 -0.700984
                  CHANNELS 3 Zrotation Xrotation Yrotation
                  End Site
                  {
                    OFFSET -1.69225 -0.51767 -0.607171
                  }
                }
              }
            }
          }
        }
      }
      JOINT lCollar
      {
        OFFSET 2.68224 19.2634 -4.8768
        CHANNELS 3 Zrotation Xrotation Yrotation
        JOINT lShldr
        {
          OFFSET 8.77824 -1.95073 1.46304
          CHANNELS 3 Zrotation Xrotation Yrotation
          JOINT lForeArm
          {
            OFFSET 28.1742 -1.7115 0.48768
            CHANNELS 3 Zrotation Xrotation Yrotation
            JOINT lHand
            {
              OFFSET 22.5879 0.773209 7.07136
              CHANNELS 3 Zrotation Xrotation Yrotation
              JOINT lThumb1
              {
                OFFSET 1.2192 -0.487915 3.41376
                CHANNELS 3 Zrotation Xrotation Yrotation
                JOINT lThumb2
                {
                  OFFSET 3.37035 -0.52449 3.41376
                  CHANNELS 3 Zrotation Xrotation Yrotation
                  End Site
                  {
                    OFFSET 1.78271 -1.18214 1.43049
                  }
                }
              }
              JOINT lIndex1
              {
                OFFSET 7.75947 0.938293 5.60832
                CHANNELS 3 Zrotation Xrotation Yrotation
                JOINT lIndex2
                {
                  OFFSET 2.54057 -0.884171 1.56538
                  CHANNELS 3 Zrotation Xrotation Yrotation
                  End Site
                  {
                    OFFSET 1.62519 -0.234802 1.16502
                  }
                }
              }
              JOINT lMid1
              {
                OFFSET 8.24714 1.18213 3.41376
                CHANNELS 3 Zrotation Xrotation Yrotation
                JOINT lMid2
                {
                  OFFSET 3.10165 -0.590103 1.0647
                  CHANNELS 3 Zrotation Xrotation Yrotation
                  End Site
                  {
                    OFFSET 2.48547 -0.328903 0.83742
                  }
                }
              }
              JOINT lRing1
              {
                OFFSET 8.82822 0.546677 1.51678
                CHANNELS 3 Zrotation Xrotation Yrotation
                JOINT lRing2
                {
                  OFFSET 2.60934 -0.819778 -0.0198488
                  CHANNELS 3 Zrotation Xrotation Yrotation
                  End Site
                  {
                    OFFSET 2.33842 -0.294052 0.168128
                  }
                }
              }
              JOINT lPinky1
              {
                OFFSET 8.27202 -0.0477905 -0.4584
                CHANNELS 3 Zrotation Xrotation Yrotation
                JOINT lPinky2
                {
                  OFFSET 1.82734 -0.647385 -0.700984
                  CHANNELS 3 Zrotation Xrotation Yrotation
                  End Site
                  {
                    OFFSET 1.69225 -0.51767 -0.607171
                  }
                }
              }
            }
          }
        }
      }
    }
  }
  JOINT rButtock
  {
    OFFSET -8.77824 4.35084 1.2192
    CHANNELS 3 Zrotation Xrotation Yrotation
    JOINT rThigh
    {
      OFFSET 0 -1.70687 -2.19456
      CHANNELS 3 Zrotation Xrotation Yrotation
      JOINT rShin
      {
        OFFSET 0 -36.8199 0.73152
        CHANNELS 3 Zrotation Xrotation Yrotation
        JOINT rFoot
        {
          OFFSET 0.73152 -45.1104 -5.12064
          CHANNELS 3 Zrotation Xrotation Yrotation
          End Site
          {
            OFFSET -1.1221 -3.69964 12.103
          }
        }
      }
    }
  }
  JOINT lButtock
  {
    OFFSET 8.77824 4.35084 1.2192
    CHANNELS 3 Zrotation Xrotation Yrotation
    JOINT lThigh
    {
      OFFSET 0 -1.70687 -2.19456
      CHANNELS 3 Zrotation Xrotation Yrotation
      JOINT lShin
      {
        OFFSET 0 -36.8199 0.73152
        CHANNELS 3 Zrotation Xrotation Yrotation
        JOINT lFoot
        {
          OFFSET -0.73152 -45.1104 -5.12064
          CHANNELS 3 Zrotation Xrotation Yrotation
          End Site
          {
            OFFSET 1.1221 -3.69964 12.103
          }
        }
      }
    }
  }
}
MOTION
Frames:	5
Frame Time:	0.00833333
0.0 0.0 0.0 0.0 0.0 0.0 0.0 0.0 0.0 0.0 0.0 0.0 0.0 0.0 0.0 0.0 0.0 0.0 0.0 0.0 0.0 0.0 0.0 0.0 0.0 0.0 0.0 0.0 0.0 0.0 0.0 0.0 0.0 0.0 0.0 0.0 0.0 0.0 0.0 0.0 0.0 0.0 0.0 0.0 0.0 0.0 0.0 0.0 0.0 0.0 0.0 0.0 0.0 0.0 0.0 0.0 0.0 0.0 0.0 0.0 0.0 0.0 0.0 0.0 0.0 0.0 0.0 0.0 0.0 0.0 0.0 0.0 0.0 0.0 0.0 0.0 0.0 0.0 0.0 0.0 0.0 0.0 0.0 0.0 0.0 0.0 0.0 0.0 0.0 0.0 0.0 0.0 0.0 0.0 0.0 0.0 0.0 0.0 0.0 0.0 0.0 0.0 0.0 0.0 0.0 0.0 0.0 0.0 0.0 0.0 0.0 0.0 0.0 0.0 0.0 0.0 0.0 0.0 0.0 0.0 0.0 0.0 0.0 0.0 0.0 0.0 0.0 0.0 0.0 0.0 0.0 0.0
-3.8353899999999994 51.69630000000001 -162.589 0.0 -0.0 0.0 -0.0 -0.0 -0.0 0.0 0.0 -0.0 -8.133567 10.422116 -81.502261 11.496437 6.51512 81.58876 0.0 -0.0 -0.0 0.0 -0.0 -0.0 -142.973735 39.431617 147.390037 -152.876061 -8.760784 171.26332 0.191137 35.725265 2.116926 -1.448921 4.640199 -0.100176 51.059793 -41.203951 12.856726 -3.944815 -59.601545 -39.285397 10.211155 -18.05077 -4.56389 88.352422 -57.62592 44.252321 -160.673322 -6.667841 143.245105 -1.828693 21.23857 4.732194 0.000474 0.063775 0.020036 -161.798201 31.977804 166.529683 -86.000836 -50.498128 -84.371009 -144.743963 7.190148 -143.981734 159.220516 -48.028485 -170.415257 -1.798516 18.086937 -22.906726 175.661097 79.319428 -178.792502 4.440974 14.093458 -0.064268 2.608268 2.55464 -0.457401 125.795316 -20.576606 -111.685085 -24.075919 -42.306446 5.558499 99.331863 39.070079 -74.339156 160.826363 -7.141801 -143.31627 165.981756 -22.710568 -143.966145 72.757246 -72.143382 89.772159 -12.449159 11.913787 -7.568679 -44.735211 86.377934 5.369007 162.423948 49.422214 144.560053 -180.0 75.749642 -0.0 -180.0 73.473292 -180.0 -5.864878 -4.414665 -123.647879 5.828746 -19.599706 -62.934765 -180.0 75.749642 -0.0 -180.0 73.473292 -180.0 7.26445 -6.891104 98.805537 78.037268 -74.275227 174.254323
-3.82812 51.6931 -162.592 0.0 -0.0 0.0 -0.0 -4.771896 -180.0 0.0 -4.771896 -180.0 12.076931 10.538806 104.787978 -7.087137 14.355986 -105.012253 -0.0 -0.0 0.0 -0.0 -0.0 0.0 3.542039 -62.05305 -13.039183 -179.033765 -14.577156 165.893241 110.618214 72.610325 -132.607617 -165.659392 46.564268 139.036425 -0.491581 0.484673 0.077556 66.997358 -78.746013 -0.068282 -162.783434 -37.706827 122.63943 2.700284 30.857742 3.08555 -89.835461 60.702148 81.262754 -7.133936 30.173559 4.0793 -70.379629 -72.130165 -87.279981 7.665081 29.708368 11.612955 -81.323898 -51.182704 -79.740822 -145.650153 9.875163 -144.728334 33.837732 -85.66573 55.255002 1.946732 6.306312 -17.604482 164.075313 -6.564674 -153.444759 -128.760344 -65.176789 -111.148199 7.758532 7.439094 -1.682075 58.87645 25.32875 -55.911705 124.893263 21.79101 -105.251057 160.968223 -25.662123 -125.61177 -17.125914 -49.945484 2.058467 10.492358 25.256337 -8.657314 145.119721 0.310087 179.225753 49.060629 87.699854 -72.61446 -17.86964 62.502088 -12.925135 -15.151618 41.863097 -4.738354 -180.0 75.749642 -0.0 -180.0 73.473292 -180.0 5.025459 -5.947284 123.870029 -1.319393 -7.283167 59.66918 -180.0 75.749642 -0.0 -180.0 73.473292 -180.0 5.864878 -4.414665 123.647879 -10.335123 -30.278116 64.516666
-3.82412 51.69049999999999 -162.593 0.0 -0.0 0.0 -0.0 -0.0 -0.0 0.0 0.0 -0.0 12.005674 11.259609 108.921114 -6.73077 14.992858 -109.222195 -0.0 -0.0 0.0 -0.0 -0.0 0.0 -153.155916 9.523036 158.79783 19.450641 2.361857 13.9648 114.007127 70.912013 -125.916231 -117.167558 72.97224 96.613023 -173.089406 -10.764913 89.918656 -127.150295 13.328062 61.773 -10.571294 15.013433 6.865128 -71.604289 50.678806 44.68483 -82.840589 61.110826 74.532293 -10.863684 36.777941 6.935127 0.000474 0.063711 0.020016 -165.7598 -1.265455 171.945377 -1.178169 -2.985265 -1.092498 9.671658 32.690787 7.398518 159.221291 -48.380822 -170.491911 174.840695 -28.303118 -156.468387 -149.82284 -81.632233 -146.288809 7.51927 23.198072 -0.738775 12.305351 11.515048 -3.094697 153.294123 -58.216908 -110.240938 138.763944 4.487785 -115.031946 -14.694437 8.337059 13.027192 -7.904304 -24.807577 3.013399 148.358439 34.121525 -131.48724 75.673382 -72.116249 92.828895 77.762259 72.837343 -95.736244 146.206697 15.40572 142.730862 40.335781 -48.758664 43.412566 -180.0 75.749642 -0.0 -180.0 73.473292 -180.0 5.025459 -5.947284 123.870029 -1.319393 -7.283167 59.66918 -180.0 75.749642 -0.0 -180.0 73.473292 -180.0 5.864878 -4.414665 123.647879 -10.335123 -30.278116 64.516666
-3.82356 51.693 -162.59 0.0 -0.0 0.0 -0.0 -4.771896 -180.0 0.0 -4.771896 -180.0 1.681211 -0.191291 9.638157 -1.625502 0.469952 -9.628684 0.0 0.0 0.0 0.0 0.0 0.0 3.268835 -26.755826 -5.241683 160.486223 -82.687332 158.289606 -147.130134 -81.750946 175.819432 161.239924 -38.12378 138.699797 170.729127 -25.696319 87.147893 -39.60211 -20.488814 -3.065895 45.282556 -63.865437 4.306423 -61.392007 42.9783 50.335751 -160.673322 -6.667841 143.245105 -40.02527 58.631426 37.293122 -0.014868 -1.323148 -0.415899 0.074132 0.442816 0.303842 -153.203778 41.295859 -148.283783 -92.682459 -48.91467 -93.238088 155.716846 -4.925325 -162.135615 31.348891 64.370584 -54.088893 -24.910586 -49.107483 13.45125 176.41949 23.148363 -144.500014 12.926332 12.051571 -3.310159 -50.416442 -59.201495 6.787117 140.763228 1.380556 -116.229033 -10.904476 17.833137 10.433232 -5.89299 -18.352005 2.543619 100.470101 62.079053 -88.571432 0.021291 -1.725169 0.542387 -1.271646 -52.96257 6.280477 12.006991 -23.632071 11.402645 130.692555 -30.023969 127.794186 -180.0 75.749642 -0.0 -180.0 73.473292 -180.0 5.025459 -5.947284 123.870029 -1.319393 -7.283167 59.66918 -180.0 75.749642 -0.0 -180.0 73.473292 -180.0 5.864878 -4.414665 123.647879 -10.335123 -30.278116 64.516666
